<svg width="29" height="30" viewBox="0 0 29 30" fill="none" xmlns="http://www.w3.org/2000/svg">
<g clip-path="url(#clip0_345_12331)">
<path fill-rule="evenodd" clip-rule="evenodd" d="M2.00768 24.1152C0.89894 24.1152 -0.000244141 23.2302 -0.000244141 22.1389V7.76141C-0.000244141 6.67016 0.89894 5.78516 2.00768 5.78516C3.11642 5.78516 4.0156 6.67016 4.0156 7.76141V22.1389C4.0156 23.2302 3.11642 24.1152 2.00768 24.1152Z" fill="#89C7E8"/>
<path fill-rule="evenodd" clip-rule="evenodd" d="M26.1019 24.1151C24.9932 24.1151 24.094 23.2301 24.094 22.1389V7.77264C24.094 6.68139 24.9932 5.79639 26.1019 5.79639C27.2107 5.79639 28.1098 6.68139 28.1098 7.77264V22.1389C28.1098 23.2301 27.2107 24.1151 26.1019 24.1151Z" fill="#0BADDC"/>
<path fill-rule="evenodd" clip-rule="evenodd" d="M14.0548 29.8808C12.9461 29.8808 12.0469 28.9958 12.0469 27.9045V2.00701C12.0469 0.915762 12.9461 0.0307617 14.0548 0.0307617C15.1635 0.0307617 16.0627 0.915762 16.0627 2.00701V27.9045C16.0627 28.9958 15.1635 29.8808 14.0548 29.8808Z" fill="#307FC2"/>
</g>
<defs>
<clipPath id="clip0_345_12331">
<rect width="29.0001" height="30" fill="white"/>
</clipPath>
</defs>
</svg>
