<svg width="182" height="175" viewBox="0 0 182 175" fill="none" xmlns="http://www.w3.org/2000/svg">
<g clip-path="url(#clip0_347_12349)">
<path d="M99.7999 0.299805H51.0999L0.899902 87.3998L51.0999 174.4L60.9999 157.3L20.6999 87.3998L60.9999 17.4998H89.7999L99.7999 0.299805Z" fill="#446CB3"/>
<path d="M65.4999 59.4L75.3999 42.3L60.9999 17.5L51.0999 34.7L65.4999 59.4Z" fill="#D24D57"/>
<path d="M121.9 17.5L131.8 34.7L60.9999 157.3L51.0999 140.1L121.9 17.5Z" fill="#D24D57"/>
<path d="M83.2 174.4L93 157.2H121.9L162.2 87.3998L121.9 17.4998L131.8 0.299805L182 87.3998L131.8 174.4H83.2Z" fill="#446CB3"/>
<path d="M117.2 115L107.3 132.1L121.9 157.2L131.8 140.3L117.2 115Z" fill="#D24D57"/>
</g>
<defs>
<clipPath id="clip0_347_12349">
<rect width="182" height="175" fill="white"/>
</clipPath>
</defs>
</svg>
