<svg width="444" height="198" viewBox="0 0 444 198" fill="none" xmlns="http://www.w3.org/2000/svg">
<g clip-path="url(#clip0_202_14500)">
<rect x="0.5" y="85.5" width="200" height="56" stroke="#DFDFE1"/>
<path d="M16.8253 119V117.449L20.4496 114.093C20.7578 113.795 21.0163 113.526 21.2251 113.288C21.4373 113.049 21.598 112.815 21.7074 112.587C21.8168 112.355 21.8714 112.104 21.8714 111.836C21.8714 111.538 21.8035 111.281 21.6676 111.065C21.5317 110.847 21.3461 110.679 21.1108 110.563C20.8755 110.444 20.6087 110.384 20.3104 110.384C19.9988 110.384 19.727 110.447 19.495 110.573C19.263 110.699 19.084 110.88 18.9581 111.115C18.8321 111.35 18.7692 111.63 18.7692 111.955H16.7259C16.7259 111.289 16.8767 110.711 17.1783 110.22C17.4799 109.73 17.9025 109.35 18.446 109.082C18.9896 108.813 19.616 108.679 20.3253 108.679C21.0545 108.679 21.6892 108.808 22.2294 109.067C22.773 109.322 23.1955 109.677 23.4972 110.131C23.7988 110.585 23.9496 111.105 23.9496 111.692C23.9496 112.076 23.8733 112.456 23.7209 112.83C23.5717 113.205 23.3049 113.621 22.9205 114.078C22.536 114.532 21.9941 115.077 21.2947 115.714L19.8082 117.17V117.24H24.0838V119H16.8253ZM29.6358 119.224C28.7807 119.22 28.0449 119.01 27.4284 118.592C26.8153 118.175 26.343 117.57 26.0115 116.778C25.6834 115.986 25.521 115.033 25.5243 113.919C25.5243 112.809 25.6884 111.862 26.0165 111.08C26.348 110.298 26.8203 109.703 27.4334 109.295C28.0499 108.884 28.784 108.679 29.6358 108.679C30.4876 108.679 31.2201 108.884 31.8333 109.295C32.4498 109.706 32.9237 110.303 33.2551 111.085C33.5866 111.864 33.7507 112.809 33.7473 113.919C33.7473 115.036 33.5816 115.991 33.2502 116.783C32.9221 117.575 32.4514 118.18 31.8382 118.597C31.2251 119.015 30.4909 119.224 29.6358 119.224ZM29.6358 117.439C30.2192 117.439 30.6848 117.146 31.0328 116.559C31.3809 115.972 31.5532 115.092 31.5499 113.919C31.5499 113.147 31.4703 112.504 31.3113 111.99C31.1555 111.476 30.9334 111.09 30.6451 110.832C30.36 110.573 30.0236 110.444 29.6358 110.444C29.0558 110.444 28.5918 110.734 28.2438 111.314C27.8958 111.894 27.7201 112.762 27.7168 113.919C27.7168 114.701 27.7947 115.354 27.9505 115.878C28.1096 116.398 28.3333 116.789 28.6216 117.051C28.91 117.31 29.248 117.439 29.6358 117.439ZM35.2823 119V117.449L38.9066 114.093C39.2148 113.795 39.4734 113.526 39.6822 113.288C39.8943 113.049 40.055 112.815 40.1644 112.587C40.2738 112.355 40.3285 112.104 40.3285 111.836C40.3285 111.538 40.2605 111.281 40.1246 111.065C39.9888 110.847 39.8031 110.679 39.5678 110.563C39.3325 110.444 39.0657 110.384 38.7674 110.384C38.4558 110.384 38.1841 110.447 37.9521 110.573C37.7201 110.699 37.5411 110.88 37.4151 111.115C37.2892 111.35 37.2262 111.63 37.2262 111.955H35.1829C35.1829 111.289 35.3337 110.711 35.6353 110.22C35.9369 109.73 36.3595 109.35 36.9031 109.082C37.4466 108.813 38.073 108.679 38.7823 108.679C39.5115 108.679 40.1462 108.808 40.6864 109.067C41.23 109.322 41.6526 109.677 41.9542 110.131C42.2558 110.585 42.4066 111.105 42.4066 111.692C42.4066 112.076 42.3304 112.456 42.1779 112.83C42.0288 113.205 41.762 113.621 41.3775 114.078C40.993 114.532 40.4511 115.077 39.7518 115.714L38.2653 117.17V117.24H42.5408V119H35.2823ZM43.7278 117.21V115.515L47.9785 108.818H49.4402V111.165H48.5751L45.8954 115.406V115.485H51.9359V117.21H43.7278ZM48.6149 119V116.693L48.6547 115.942V108.818H50.6731V119H48.6149Z" fill="#0E540C"/>
<rect x="0.5" y="141.5" width="200" height="56" stroke="#DFDFE1"/>
<path d="M16.8253 175V173.449L20.4496 170.093C20.7578 169.795 21.0163 169.526 21.2251 169.288C21.4373 169.049 21.598 168.815 21.7074 168.587C21.8168 168.355 21.8714 168.104 21.8714 167.836C21.8714 167.538 21.8035 167.281 21.6676 167.065C21.5317 166.847 21.3461 166.679 21.1108 166.563C20.8755 166.444 20.6087 166.384 20.3104 166.384C19.9988 166.384 19.727 166.447 19.495 166.573C19.263 166.699 19.084 166.88 18.9581 167.115C18.8321 167.35 18.7692 167.63 18.7692 167.955H16.7259C16.7259 167.289 16.8767 166.711 17.1783 166.22C17.4799 165.73 17.9025 165.35 18.446 165.082C18.9896 164.813 19.616 164.679 20.3253 164.679C21.0545 164.679 21.6892 164.808 22.2294 165.067C22.773 165.322 23.1955 165.677 23.4972 166.131C23.7988 166.585 23.9496 167.105 23.9496 167.692C23.9496 168.076 23.8733 168.456 23.7209 168.83C23.5717 169.205 23.3049 169.621 22.9205 170.078C22.536 170.532 21.9941 171.077 21.2947 171.714L19.8082 173.17V173.24H24.0838V175H16.8253ZM29.6358 175.224C28.7807 175.22 28.0449 175.01 27.4284 174.592C26.8153 174.175 26.343 173.57 26.0115 172.778C25.6834 171.986 25.521 171.033 25.5243 169.919C25.5243 168.809 25.6884 167.862 26.0165 167.08C26.348 166.298 26.8203 165.703 27.4334 165.295C28.0499 164.884 28.784 164.679 29.6358 164.679C30.4876 164.679 31.2201 164.884 31.8333 165.295C32.4498 165.706 32.9237 166.303 33.2551 167.085C33.5866 167.864 33.7507 168.809 33.7473 169.919C33.7473 171.036 33.5816 171.991 33.2502 172.783C32.9221 173.575 32.4514 174.18 31.8382 174.597C31.2251 175.015 30.4909 175.224 29.6358 175.224ZM29.6358 173.439C30.2192 173.439 30.6848 173.146 31.0328 172.559C31.3809 171.972 31.5532 171.092 31.5499 169.919C31.5499 169.147 31.4703 168.504 31.3113 167.99C31.1555 167.476 30.9334 167.09 30.6451 166.832C30.36 166.573 30.0236 166.444 29.6358 166.444C29.0558 166.444 28.5918 166.734 28.2438 167.314C27.8958 167.894 27.7201 168.762 27.7168 169.919C27.7168 170.701 27.7947 171.354 27.9505 171.878C28.1096 172.398 28.3333 172.789 28.6216 173.051C28.91 173.31 29.248 173.439 29.6358 173.439ZM39.0458 175.139C38.3034 175.139 37.6422 175.012 37.0621 174.756C36.4854 174.498 36.0297 174.143 35.695 173.692C35.3635 173.238 35.1928 172.715 35.1829 172.121H37.3505C37.3638 172.37 37.445 172.589 37.5941 172.778C37.7466 172.963 37.9487 173.107 38.2006 173.21C38.4525 173.313 38.7359 173.364 39.0508 173.364C39.3789 173.364 39.6689 173.306 39.9208 173.19C40.1727 173.074 40.3699 172.914 40.5124 172.708C40.6549 172.503 40.7262 172.266 40.7262 171.997C40.7262 171.725 40.65 171.485 40.4975 171.276C40.3484 171.064 40.1329 170.898 39.8512 170.779C39.5728 170.66 39.2414 170.6 38.8569 170.6H37.9073V169.019H38.8569C39.1817 169.019 39.4684 168.963 39.717 168.85C39.9689 168.737 40.1644 168.582 40.3036 168.383C40.4428 168.181 40.5124 167.945 40.5124 167.677C40.5124 167.422 40.4511 167.198 40.3285 167.006C40.2092 166.81 40.0401 166.658 39.8214 166.548C39.6059 166.439 39.354 166.384 39.0657 166.384C38.774 166.384 38.5072 166.437 38.2653 166.543C38.0233 166.646 37.8294 166.794 37.6836 166.986C37.5378 167.178 37.4599 167.403 37.4499 167.662H35.3867C35.3967 167.075 35.564 166.558 35.8888 166.111C36.2137 165.663 36.6512 165.314 37.2013 165.062C37.7549 164.807 38.3796 164.679 39.0756 164.679C39.7783 164.679 40.3931 164.807 40.9201 165.062C41.4471 165.317 41.8564 165.662 42.1481 166.096C42.4431 166.527 42.5889 167.011 42.5856 167.548C42.5889 168.118 42.4116 168.593 42.0536 168.974C41.699 169.356 41.2366 169.598 40.6665 169.7V169.78C41.4156 169.876 41.9857 170.136 42.3768 170.56C42.7712 170.981 42.9667 171.508 42.9634 172.141C42.9667 172.721 42.7994 173.237 42.4613 173.688C42.1265 174.138 41.6642 174.493 41.0742 174.751C40.4843 175.01 39.8081 175.139 39.0458 175.139ZM48.503 175.224C47.6479 175.22 46.9121 175.01 46.2956 174.592C45.6825 174.175 45.2102 173.57 44.8787 172.778C44.5506 171.986 44.3882 171.033 44.3915 169.919C44.3915 168.809 44.5556 167.862 44.8837 167.08C45.2151 166.298 45.6874 165.703 46.3006 165.295C46.9171 164.884 47.6512 164.679 48.503 164.679C49.3548 164.679 50.0873 164.884 50.7005 165.295C51.3169 165.706 51.7909 166.303 52.1223 167.085C52.4538 167.864 52.6178 168.809 52.6145 169.919C52.6145 171.036 52.4488 171.991 52.1174 172.783C51.7892 173.575 51.3186 174.18 50.7054 174.597C50.0923 175.015 49.3581 175.224 48.503 175.224ZM48.503 173.439C49.0864 173.439 49.552 173.146 49.9 172.559C50.248 171.972 50.4204 171.092 50.4171 169.919C50.4171 169.147 50.3375 168.504 50.1784 167.99C50.0227 167.476 49.8006 167.09 49.5123 166.832C49.2272 166.573 48.8908 166.444 48.503 166.444C47.923 166.444 47.459 166.734 47.111 167.314C46.763 167.894 46.5873 168.762 46.584 169.919C46.584 170.701 46.6619 171.354 46.8176 171.878C46.9767 172.398 47.2005 172.789 47.4888 173.051C47.7772 173.31 48.1152 173.439 48.503 173.439Z" fill="#0E540C"/>
</g>
<path d="M0.5 97C0.5 90.6487 5.64873 85.5 12 85.5H93.5V197.5H12C5.64872 197.5 0.5 192.351 0.5 186V97Z" stroke="#DFDFE1"/>
<rect x="94.5" y="85.5" width="349" height="56" stroke="#DFDFE1"/>
<path d="M239.852 108.818H241.085V115.56C241.085 116.256 240.921 116.877 240.593 117.424C240.268 117.968 239.809 118.397 239.216 118.712C238.623 119.023 237.927 119.179 237.128 119.179C236.329 119.179 235.633 119.023 235.04 118.712C234.446 118.397 233.986 117.968 233.658 117.424C233.333 116.877 233.17 116.256 233.17 115.56V108.818H234.403V115.46C234.403 115.957 234.513 116.4 234.732 116.788C234.95 117.172 235.262 117.475 235.666 117.697C236.074 117.916 236.561 118.026 237.128 118.026C237.695 118.026 238.182 117.916 238.589 117.697C238.997 117.475 239.309 117.172 239.524 116.788C239.743 116.4 239.852 115.957 239.852 115.46V108.818ZM249.116 111.364C249.056 110.86 248.814 110.469 248.39 110.19C247.965 109.912 247.445 109.773 246.829 109.773C246.378 109.773 245.983 109.846 245.645 109.991C245.311 110.137 245.049 110.338 244.86 110.593C244.674 110.848 244.581 111.138 244.581 111.463C244.581 111.735 244.646 111.969 244.775 112.164C244.908 112.356 245.077 112.517 245.282 112.646C245.488 112.772 245.703 112.877 245.929 112.96C246.154 113.039 246.361 113.104 246.55 113.153L247.584 113.432C247.849 113.501 248.144 113.598 248.469 113.72C248.797 113.843 249.111 114.01 249.409 114.222C249.711 114.431 249.959 114.7 250.155 115.028C250.35 115.356 250.448 115.759 250.448 116.236C250.448 116.786 250.304 117.283 250.015 117.727C249.73 118.171 249.313 118.524 248.763 118.786C248.216 119.048 247.551 119.179 246.769 119.179C246.04 119.179 245.408 119.061 244.875 118.826C244.345 118.591 243.927 118.263 243.622 117.842C243.32 117.421 243.15 116.932 243.11 116.375H244.383C244.416 116.759 244.545 117.078 244.77 117.33C244.999 117.578 245.287 117.764 245.635 117.886C245.987 118.006 246.365 118.065 246.769 118.065C247.24 118.065 247.662 117.989 248.037 117.837C248.411 117.681 248.708 117.465 248.927 117.19C249.145 116.912 249.255 116.587 249.255 116.216C249.255 115.878 249.16 115.603 248.971 115.391C248.782 115.179 248.534 115.006 248.226 114.874C247.917 114.741 247.584 114.625 247.226 114.526L245.974 114.168C245.178 113.939 244.548 113.612 244.084 113.188C243.62 112.764 243.388 112.209 243.388 111.523C243.388 110.953 243.542 110.455 243.851 110.031C244.162 109.604 244.58 109.272 245.104 109.037C245.631 108.798 246.219 108.679 246.868 108.679C247.525 108.679 248.108 108.797 248.618 109.032C249.129 109.264 249.533 109.582 249.831 109.987C250.133 110.391 250.292 110.85 250.309 111.364H249.116ZM255.299 120.273V107.545H256.114V120.273H255.299ZM258.043 111.364C257.984 110.86 257.742 110.469 257.317 110.19C256.893 109.912 256.373 109.773 255.756 109.773C255.306 109.773 254.911 109.846 254.573 109.991C254.238 110.137 253.977 110.338 253.788 110.593C253.602 110.848 253.509 111.138 253.509 111.463C253.509 111.735 253.574 111.969 253.703 112.164C253.836 112.356 254.005 112.517 254.21 112.646C254.416 112.772 254.631 112.877 254.857 112.96C255.082 113.039 255.289 113.104 255.478 113.153L256.512 113.432C256.777 113.501 257.072 113.598 257.397 113.72C257.725 113.843 258.038 114.01 258.337 114.222C258.638 114.431 258.887 114.7 259.082 115.028C259.278 115.356 259.376 115.759 259.376 116.236C259.376 116.786 259.232 117.283 258.943 117.727C258.658 118.171 258.241 118.524 257.69 118.786C257.143 119.048 256.479 119.179 255.697 119.179C254.968 119.179 254.336 119.061 253.803 118.826C253.272 118.591 252.855 118.263 252.55 117.842C252.248 117.421 252.077 116.932 252.038 116.375H253.31C253.344 116.759 253.473 117.078 253.698 117.33C253.927 117.578 254.215 117.764 254.563 117.886C254.915 118.006 255.292 118.065 255.697 118.065C256.167 118.065 256.59 117.989 256.964 117.837C257.339 117.681 257.636 117.465 257.854 117.19C258.073 116.912 258.183 116.587 258.183 116.216C258.183 115.878 258.088 115.603 257.899 115.391C257.71 115.179 257.462 115.006 257.153 114.874C256.845 114.741 256.512 114.625 256.154 114.526L254.901 114.168C254.106 113.939 253.476 113.612 253.012 113.188C252.548 112.764 252.316 112.209 252.316 111.523C252.316 110.953 252.47 110.455 252.778 110.031C253.09 109.604 253.508 109.272 254.031 109.037C254.558 108.798 255.147 108.679 255.796 108.679C256.452 108.679 257.036 108.797 257.546 109.032C258.057 109.264 258.461 109.582 258.759 109.987C259.061 110.391 259.22 110.85 259.237 111.364H258.043ZM261.224 119V118.105L264.585 114.426C264.979 113.995 265.304 113.621 265.559 113.303C265.814 112.981 266.003 112.679 266.126 112.398C266.252 112.113 266.315 111.814 266.315 111.503C266.315 111.145 266.229 110.835 266.056 110.573C265.887 110.311 265.655 110.109 265.36 109.967C265.065 109.824 264.734 109.753 264.366 109.753C263.975 109.753 263.633 109.834 263.342 109.996C263.053 110.156 262.83 110.379 262.671 110.668C262.515 110.956 262.437 111.294 262.437 111.682H261.264C261.264 111.085 261.401 110.562 261.676 110.111C261.951 109.66 262.326 109.309 262.8 109.057C263.277 108.805 263.812 108.679 264.406 108.679C265.002 108.679 265.531 108.805 265.992 109.057C266.452 109.309 266.814 109.648 267.075 110.076C267.337 110.504 267.468 110.979 267.468 111.503C267.468 111.877 267.4 112.244 267.264 112.602C267.132 112.956 266.9 113.352 266.568 113.79C266.24 114.224 265.785 114.754 265.201 115.381L262.914 117.827V117.906H267.647V119H261.224ZM276.979 111.364V112.358H273.021V111.364H276.979ZM274.175 109.534H275.348V116.812C275.348 117.144 275.396 117.393 275.492 117.558C275.592 117.721 275.718 117.83 275.87 117.886C276.026 117.939 276.19 117.966 276.362 117.966C276.492 117.966 276.598 117.959 276.681 117.946C276.763 117.929 276.83 117.916 276.879 117.906L277.118 118.96C277.039 118.99 276.927 119.02 276.785 119.05C276.642 119.083 276.462 119.099 276.243 119.099C275.912 119.099 275.587 119.028 275.269 118.886C274.954 118.743 274.692 118.526 274.483 118.234C274.278 117.943 274.175 117.575 274.175 117.131V109.534ZM278.744 119V111.364H279.877V112.517H279.957C280.096 112.139 280.348 111.833 280.713 111.597C281.077 111.362 281.488 111.244 281.945 111.244C282.032 111.244 282.139 111.246 282.269 111.249C282.398 111.253 282.496 111.258 282.562 111.264V112.457C282.522 112.447 282.431 112.433 282.289 112.413C282.149 112.389 282.002 112.378 281.846 112.378C281.475 112.378 281.143 112.456 280.852 112.612C280.563 112.764 280.335 112.976 280.166 113.248C280 113.516 279.917 113.823 279.917 114.168V119H278.744ZM283.953 119V111.364H285.126V119H283.953ZM284.549 110.091C284.321 110.091 284.123 110.013 283.958 109.857C283.795 109.701 283.714 109.514 283.714 109.295C283.714 109.077 283.795 108.889 283.958 108.734C284.123 108.578 284.321 108.5 284.549 108.5C284.778 108.5 284.974 108.578 285.136 108.734C285.302 108.889 285.385 109.077 285.385 109.295C285.385 109.514 285.302 109.701 285.136 109.857C284.974 110.013 284.778 110.091 284.549 110.091ZM288.448 108.818V119H287.275V108.818H288.448ZM290.597 119V111.364H291.771V119H290.597ZM291.194 110.091C290.965 110.091 290.768 110.013 290.602 109.857C290.44 109.701 290.359 109.514 290.359 109.295C290.359 109.077 290.44 108.889 290.602 108.734C290.768 108.578 290.965 108.5 291.194 108.5C291.423 108.5 291.618 108.578 291.781 108.734C291.946 108.889 292.029 109.077 292.029 109.295C292.029 109.514 291.946 109.701 291.781 109.857C291.618 110.013 291.423 110.091 291.194 110.091ZM298.732 115.878V111.364H299.905V119H298.732V117.707H298.653C298.474 118.095 298.195 118.425 297.817 118.697C297.439 118.965 296.962 119.099 296.385 119.099C295.908 119.099 295.484 118.995 295.113 118.786C294.742 118.574 294.45 118.256 294.238 117.832C294.026 117.404 293.92 116.866 293.92 116.216V111.364H295.093V116.136C295.093 116.693 295.249 117.137 295.56 117.469C295.875 117.8 296.276 117.966 296.763 117.966C297.055 117.966 297.352 117.891 297.653 117.742C297.958 117.593 298.213 117.364 298.419 117.056C298.628 116.748 298.732 116.355 298.732 115.878ZM303.228 114.406V119H302.054V111.364H303.188V112.557H303.287C303.466 112.169 303.738 111.857 304.103 111.622C304.467 111.384 304.938 111.264 305.515 111.264C306.032 111.264 306.484 111.37 306.872 111.582C307.26 111.791 307.561 112.109 307.777 112.537C307.992 112.961 308.1 113.498 308.1 114.148V119H306.926V114.227C306.926 113.627 306.771 113.16 306.459 112.825C306.148 112.487 305.72 112.318 305.176 112.318C304.802 112.318 304.467 112.399 304.172 112.562C303.881 112.724 303.65 112.961 303.481 113.273C303.312 113.584 303.228 113.962 303.228 114.406Z" fill="#413F4C"/>
<path d="M94.5 141.5H443.5V177C443.5 188.322 434.322 197.5 423 197.5H94.5V141.5Z" stroke="#DFDFE1"/>
<path d="M237.915 164.818H239.148V171.56C239.148 172.256 238.984 172.877 238.656 173.424C238.331 173.968 237.872 174.397 237.278 174.712C236.685 175.023 235.989 175.179 235.19 175.179C234.392 175.179 233.696 175.023 233.102 174.712C232.509 174.397 232.048 173.968 231.72 173.424C231.395 172.877 231.233 172.256 231.233 171.56V164.818H232.466V171.46C232.466 171.957 232.575 172.4 232.794 172.788C233.013 173.172 233.324 173.475 233.729 173.697C234.136 173.916 234.624 174.026 235.19 174.026C235.757 174.026 236.244 173.916 236.652 173.697C237.06 173.475 237.371 173.172 237.587 172.788C237.805 172.4 237.915 171.957 237.915 171.46V164.818ZM247.178 167.364C247.118 166.86 246.876 166.469 246.452 166.19C246.028 165.912 245.508 165.773 244.891 165.773C244.44 165.773 244.046 165.846 243.708 165.991C243.373 166.137 243.111 166.338 242.922 166.593C242.737 166.848 242.644 167.138 242.644 167.463C242.644 167.735 242.709 167.969 242.838 168.164C242.97 168.356 243.14 168.517 243.345 168.646C243.55 168.772 243.766 168.877 243.991 168.96C244.217 169.039 244.424 169.104 244.613 169.153L245.647 169.432C245.912 169.501 246.207 169.598 246.532 169.72C246.86 169.843 247.173 170.01 247.471 170.222C247.773 170.431 248.022 170.7 248.217 171.028C248.413 171.356 248.51 171.759 248.51 172.236C248.51 172.786 248.366 173.283 248.078 173.727C247.793 174.171 247.375 174.524 246.825 174.786C246.278 175.048 245.614 175.179 244.831 175.179C244.102 175.179 243.471 175.061 242.937 174.826C242.407 174.591 241.989 174.263 241.684 173.842C241.383 173.421 241.212 172.932 241.172 172.375H242.445C242.478 172.759 242.608 173.078 242.833 173.33C243.062 173.578 243.35 173.764 243.698 173.886C244.049 174.006 244.427 174.065 244.831 174.065C245.302 174.065 245.725 173.989 246.099 173.837C246.474 173.681 246.77 173.465 246.989 173.19C247.208 172.912 247.317 172.587 247.317 172.216C247.317 171.878 247.223 171.603 247.034 171.391C246.845 171.179 246.596 171.006 246.288 170.874C245.98 170.741 245.647 170.625 245.289 170.526L244.036 170.168C243.241 169.939 242.611 169.612 242.147 169.188C241.683 168.764 241.451 168.209 241.451 167.523C241.451 166.953 241.605 166.455 241.913 166.031C242.225 165.604 242.642 165.272 243.166 165.037C243.693 164.798 244.281 164.679 244.931 164.679C245.587 164.679 246.171 164.797 246.681 165.032C247.191 165.264 247.596 165.582 247.894 165.987C248.196 166.391 248.355 166.85 248.371 167.364H247.178ZM253.362 176.273V163.545H254.177V176.273H253.362ZM256.106 167.364C256.046 166.86 255.804 166.469 255.38 166.19C254.956 165.912 254.435 165.773 253.819 165.773C253.368 165.773 252.974 165.846 252.636 165.991C252.301 166.137 252.039 166.338 251.85 166.593C251.665 166.848 251.572 167.138 251.572 167.463C251.572 167.735 251.636 167.969 251.766 168.164C251.898 168.356 252.067 168.517 252.273 168.646C252.478 168.772 252.694 168.877 252.919 168.96C253.144 169.039 253.352 169.104 253.54 169.153L254.575 169.432C254.84 169.501 255.135 169.598 255.46 169.72C255.788 169.843 256.101 170.01 256.399 170.222C256.701 170.431 256.949 170.7 257.145 171.028C257.34 171.356 257.438 171.759 257.438 172.236C257.438 172.786 257.294 173.283 257.006 173.727C256.721 174.171 256.303 174.524 255.753 174.786C255.206 175.048 254.541 175.179 253.759 175.179C253.03 175.179 252.399 175.061 251.865 174.826C251.335 174.591 250.917 174.263 250.612 173.842C250.311 173.421 250.14 172.932 250.1 172.375H251.373C251.406 172.759 251.535 173.078 251.761 173.33C251.989 173.578 252.278 173.764 252.626 173.886C252.977 174.006 253.355 174.065 253.759 174.065C254.23 174.065 254.652 173.989 255.027 173.837C255.402 173.681 255.698 173.465 255.917 173.19C256.136 172.912 256.245 172.587 256.245 172.216C256.245 171.878 256.151 171.603 255.962 171.391C255.773 171.179 255.524 171.006 255.216 170.874C254.908 170.741 254.575 170.625 254.217 170.526L252.964 170.168C252.168 169.939 251.539 169.612 251.075 169.188C250.611 168.764 250.379 168.209 250.379 167.523C250.379 166.953 250.533 166.455 250.841 166.031C251.152 165.604 251.57 165.272 252.094 165.037C252.621 164.798 253.209 164.679 253.859 164.679C254.515 164.679 255.098 164.797 255.609 165.032C256.119 165.264 256.523 165.582 256.822 165.987C257.123 166.391 257.282 166.85 257.299 167.364H256.106ZM262.727 175.139C262.07 175.139 261.485 175.027 260.972 174.801C260.461 174.576 260.055 174.263 259.754 173.862C259.455 173.457 259.293 172.988 259.267 172.455H260.519C260.546 172.783 260.659 173.066 260.857 173.305C261.056 173.54 261.316 173.722 261.638 173.852C261.959 173.981 262.316 174.045 262.707 174.045C263.144 174.045 263.532 173.969 263.87 173.817C264.208 173.664 264.473 173.452 264.666 173.18C264.858 172.909 264.954 172.594 264.954 172.236C264.954 171.861 264.861 171.531 264.676 171.246C264.49 170.958 264.218 170.733 263.86 170.57C263.502 170.408 263.065 170.327 262.548 170.327H261.732V169.233H262.548C262.952 169.233 263.307 169.16 263.612 169.014C263.92 168.868 264.16 168.663 264.333 168.398C264.508 168.133 264.596 167.821 264.596 167.463C264.596 167.118 264.52 166.818 264.367 166.563C264.215 166.308 263.999 166.109 263.721 165.967C263.446 165.824 263.121 165.753 262.747 165.753C262.395 165.753 262.064 165.817 261.752 165.947C261.444 166.073 261.192 166.257 260.997 166.499C260.801 166.737 260.695 167.026 260.678 167.364H259.485C259.505 166.83 259.666 166.363 259.968 165.962C260.269 165.557 260.664 165.242 261.151 165.017C261.641 164.792 262.18 164.679 262.767 164.679C263.396 164.679 263.936 164.807 264.387 165.062C264.838 165.314 265.184 165.647 265.426 166.061C265.668 166.475 265.789 166.923 265.789 167.403C265.789 167.977 265.638 168.466 265.337 168.87C265.039 169.274 264.633 169.554 264.119 169.71V169.79C264.762 169.896 265.264 170.169 265.625 170.61C265.986 171.048 266.167 171.589 266.167 172.236C266.167 172.789 266.016 173.286 265.715 173.727C265.416 174.165 265.009 174.509 264.492 174.761C263.975 175.013 263.386 175.139 262.727 175.139ZM275.479 167.364V168.358H271.521V167.364H275.479ZM272.675 165.534H273.848V172.812C273.848 173.144 273.896 173.393 273.992 173.558C274.092 173.721 274.218 173.83 274.37 173.886C274.526 173.939 274.69 173.966 274.862 173.966C274.992 173.966 275.098 173.959 275.181 173.946C275.263 173.929 275.33 173.916 275.379 173.906L275.618 174.96C275.539 174.99 275.427 175.02 275.285 175.05C275.142 175.083 274.962 175.099 274.743 175.099C274.412 175.099 274.087 175.028 273.769 174.886C273.454 174.743 273.192 174.526 272.983 174.234C272.778 173.943 272.675 173.575 272.675 173.131V165.534ZM277.244 175V167.364H278.377V168.517H278.457C278.596 168.139 278.848 167.833 279.213 167.597C279.577 167.362 279.988 167.244 280.445 167.244C280.532 167.244 280.639 167.246 280.769 167.249C280.898 167.253 280.996 167.258 281.062 167.264V168.457C281.022 168.447 280.931 168.433 280.789 168.413C280.649 168.389 280.502 168.378 280.346 168.378C279.975 168.378 279.643 168.456 279.352 168.612C279.063 168.764 278.835 168.976 278.666 169.248C278.5 169.516 278.417 169.823 278.417 170.168V175H277.244ZM282.453 175V167.364H283.626V175H282.453ZM283.049 166.091C282.821 166.091 282.623 166.013 282.458 165.857C282.295 165.701 282.214 165.514 282.214 165.295C282.214 165.077 282.295 164.889 282.458 164.734C282.623 164.578 282.821 164.5 283.049 164.5C283.278 164.5 283.474 164.578 283.636 164.734C283.802 164.889 283.885 165.077 283.885 165.295C283.885 165.514 283.802 165.701 283.636 165.857C283.474 166.013 283.278 166.091 283.049 166.091ZM286.948 164.818V175H285.775V164.818H286.948ZM289.097 175V167.364H290.271V175H289.097ZM289.694 166.091C289.465 166.091 289.268 166.013 289.102 165.857C288.94 165.701 288.859 165.514 288.859 165.295C288.859 165.077 288.94 164.889 289.102 164.734C289.268 164.578 289.465 164.5 289.694 164.5C289.923 164.5 290.118 164.578 290.281 164.734C290.446 164.889 290.529 165.077 290.529 165.295C290.529 165.514 290.446 165.701 290.281 165.857C290.118 166.013 289.923 166.091 289.694 166.091ZM297.232 171.878V167.364H298.405V175H297.232V173.707H297.153C296.974 174.095 296.695 174.425 296.317 174.697C295.939 174.965 295.462 175.099 294.885 175.099C294.408 175.099 293.984 174.995 293.613 174.786C293.242 174.574 292.95 174.256 292.738 173.832C292.526 173.404 292.42 172.866 292.42 172.216V167.364H293.593V172.136C293.593 172.693 293.749 173.137 294.06 173.469C294.375 173.8 294.776 173.966 295.263 173.966C295.555 173.966 295.852 173.891 296.153 173.742C296.458 173.593 296.713 173.364 296.919 173.056C297.128 172.748 297.232 172.355 297.232 171.878ZM301.728 170.406V175H300.554V167.364H301.688V168.557H301.787C301.966 168.169 302.238 167.857 302.603 167.622C302.967 167.384 303.438 167.264 304.015 167.264C304.532 167.264 304.984 167.37 305.372 167.582C305.76 167.791 306.061 168.109 306.277 168.537C306.492 168.961 306.6 169.498 306.6 170.148V175H305.426V170.227C305.426 169.627 305.271 169.16 304.959 168.825C304.648 168.487 304.22 168.318 303.676 168.318C303.302 168.318 302.967 168.399 302.672 168.562C302.381 168.724 302.15 168.961 301.981 169.273C301.812 169.584 301.728 169.962 301.728 170.406Z" fill="#413F4C"/>
<path d="M94 21C94 9.40202 103.402 0 115 0H423C434.598 0 444 9.40202 444 21V85H94V21Z" fill="#446747"/>
<path d="M140.208 33.46H145.488C148.112 33.46 150.128 34.204 151.536 35.692C152.96 37.164 153.672 39.268 153.672 42.004C153.672 44.724 152.976 46.82 151.584 48.292C150.192 49.764 148.208 50.5 145.632 50.5H140.208V33.46ZM145.488 48.484C149.504 48.484 151.512 46.324 151.512 42.004C151.512 37.652 149.504 35.476 145.488 35.476H142.272V48.484H145.488ZM160.276 50.788C158.948 50.788 157.9 50.484 157.132 49.876C156.364 49.268 155.98 48.42 155.98 47.332C155.98 46.244 156.3 45.388 156.94 44.764C157.58 44.14 158.596 43.7 159.988 43.444L164.5 42.604C164.5 40.476 163.492 39.412 161.476 39.412C159.78 39.412 158.732 40.172 158.332 41.692L156.196 41.524C156.436 40.292 157.02 39.316 157.948 38.596C158.892 37.86 160.068 37.492 161.476 37.492C163.092 37.492 164.332 37.948 165.196 38.86C166.076 39.772 166.516 41.044 166.516 42.676V47.932C166.516 48.22 166.564 48.428 166.66 48.556C166.772 48.668 166.948 48.724 167.188 48.724H167.692V50.5C167.5 50.532 167.244 50.548 166.924 50.548C166.156 50.548 165.58 50.388 165.196 50.068C164.828 49.748 164.604 49.236 164.524 48.532C164.204 49.188 163.644 49.732 162.844 50.164C162.06 50.58 161.204 50.788 160.276 50.788ZM160.468 49.012C161.716 49.012 162.7 48.66 163.42 47.956C164.14 47.252 164.5 46.356 164.5 45.268V44.356L160.372 45.124C159.54 45.268 158.948 45.508 158.596 45.844C158.26 46.164 158.092 46.596 158.092 47.14C158.092 47.732 158.3 48.196 158.716 48.532C159.132 48.852 159.716 49.012 160.468 49.012ZM170.342 37.78H172.19L172.238 40.06C172.558 39.212 173.062 38.572 173.75 38.14C174.438 37.708 175.238 37.492 176.15 37.492C177.542 37.492 178.606 37.94 179.342 38.836C180.078 39.732 180.446 40.892 180.446 42.316V50.5H178.43V42.892C178.43 41.692 178.214 40.788 177.782 40.18C177.35 39.572 176.662 39.268 175.718 39.268C174.71 39.268 173.894 39.588 173.27 40.228C172.662 40.852 172.358 41.74 172.358 42.892V50.5H170.342V37.78ZM187.557 50.788C186.229 50.788 185.181 50.484 184.413 49.876C183.645 49.268 183.261 48.42 183.261 47.332C183.261 46.244 183.581 45.388 184.221 44.764C184.861 44.14 185.877 43.7 187.269 43.444L191.781 42.604C191.781 40.476 190.773 39.412 188.757 39.412C187.061 39.412 186.013 40.172 185.613 41.692L183.477 41.524C183.717 40.292 184.301 39.316 185.229 38.596C186.173 37.86 187.349 37.492 188.757 37.492C190.373 37.492 191.613 37.948 192.477 38.86C193.357 39.772 193.797 41.044 193.797 42.676V47.932C193.797 48.22 193.845 48.428 193.941 48.556C194.053 48.668 194.229 48.724 194.469 48.724H194.973V50.5C194.781 50.532 194.525 50.548 194.205 50.548C193.437 50.548 192.861 50.388 192.477 50.068C192.109 49.748 191.885 49.236 191.805 48.532C191.485 49.188 190.925 49.732 190.125 50.164C189.341 50.58 188.485 50.788 187.557 50.788ZM187.749 49.012C188.997 49.012 189.981 48.66 190.701 47.956C191.421 47.252 191.781 46.356 191.781 45.268V44.356L187.653 45.124C186.821 45.268 186.229 45.508 185.877 45.844C185.541 46.164 185.373 46.596 185.373 47.14C185.373 47.732 185.581 48.196 185.997 48.532C186.413 48.852 186.997 49.012 187.749 49.012ZM208.348 43.54L202.324 33.46H204.772L209.38 41.428L213.988 33.46H216.436L210.412 43.54V50.5H208.348V43.54ZM221.283 50.788C219.955 50.788 218.907 50.484 218.139 49.876C217.371 49.268 216.987 48.42 216.987 47.332C216.987 46.244 217.307 45.388 217.947 44.764C218.587 44.14 219.603 43.7 220.995 43.444L225.507 42.604C225.507 40.476 224.499 39.412 222.483 39.412C220.787 39.412 219.739 40.172 219.339 41.692L217.203 41.524C217.443 40.292 218.027 39.316 218.955 38.596C219.899 37.86 221.075 37.492 222.483 37.492C224.099 37.492 225.339 37.948 226.203 38.86C227.083 39.772 227.523 41.044 227.523 42.676V47.932C227.523 48.22 227.571 48.428 227.667 48.556C227.779 48.668 227.955 48.724 228.195 48.724H228.699V50.5C228.507 50.532 228.251 50.548 227.931 50.548C227.163 50.548 226.587 50.388 226.203 50.068C225.835 49.748 225.611 49.236 225.531 48.532C225.211 49.188 224.651 49.732 223.851 50.164C223.067 50.58 222.211 50.788 221.283 50.788ZM221.475 49.012C222.723 49.012 223.707 48.66 224.427 47.956C225.147 47.252 225.507 46.356 225.507 45.268V44.356L221.379 45.124C220.547 45.268 219.955 45.508 219.603 45.844C219.267 46.164 219.099 46.596 219.099 47.14C219.099 47.732 219.307 48.196 219.723 48.532C220.139 48.852 220.723 49.012 221.475 49.012ZM231.35 37.78H233.198L233.246 40.06C233.566 39.212 234.07 38.572 234.758 38.14C235.446 37.708 236.246 37.492 237.158 37.492C238.55 37.492 239.614 37.94 240.35 38.836C241.086 39.732 241.454 40.892 241.454 42.316V50.5H239.438V42.892C239.438 41.692 239.222 40.788 238.79 40.18C238.358 39.572 237.67 39.268 236.726 39.268C235.718 39.268 234.902 39.588 234.278 40.228C233.67 40.852 233.366 41.74 233.366 42.892V50.5H231.35V37.78ZM249.839 54.388C248.479 54.388 247.319 54.052 246.359 53.38C245.399 52.708 244.783 51.812 244.511 50.692L246.623 50.548C246.831 51.188 247.183 51.668 247.679 51.988C248.175 52.308 248.895 52.468 249.839 52.468C251.007 52.468 251.895 52.236 252.503 51.772C253.111 51.308 253.415 50.612 253.415 49.684V47.62C253.095 48.292 252.599 48.828 251.927 49.228C251.271 49.628 250.527 49.828 249.695 49.828C248.623 49.828 247.663 49.572 246.815 49.06C245.983 48.532 245.327 47.804 244.847 46.876C244.383 45.932 244.151 44.86 244.151 43.66C244.151 42.46 244.383 41.396 244.847 40.468C245.311 39.524 245.951 38.796 246.767 38.284C247.599 37.756 248.543 37.492 249.599 37.492C250.495 37.492 251.295 37.7 251.999 38.116C252.719 38.532 253.223 39.092 253.511 39.796V37.78H255.431V49.636C255.431 51.124 254.935 52.284 253.943 53.116C252.951 53.964 251.583 54.388 249.839 54.388ZM249.791 47.908C250.911 47.908 251.791 47.516 252.431 46.732C253.087 45.948 253.415 44.884 253.415 43.54C253.415 42.276 253.087 41.276 252.431 40.54C251.775 39.788 250.895 39.412 249.791 39.412C248.687 39.412 247.823 39.796 247.199 40.564C246.575 41.316 246.263 42.348 246.263 43.66C246.263 44.972 246.575 46.012 247.199 46.78C247.839 47.532 248.703 47.908 249.791 47.908ZM265.552 33.46H270.832C273.456 33.46 275.472 34.204 276.88 35.692C278.304 37.164 279.016 39.268 279.016 42.004C279.016 44.724 278.32 46.82 276.928 48.292C275.536 49.764 273.552 50.5 270.976 50.5H265.552V33.46ZM270.832 48.484C274.848 48.484 276.856 46.324 276.856 42.004C276.856 37.652 274.848 35.476 270.832 35.476H267.616V48.484H270.832ZM281.506 37.78H283.522V50.5H281.506V37.78ZM281.458 33.436H283.57V35.788H281.458V33.436ZM292.588 50.788C291.708 50.788 290.924 50.596 290.236 50.212C289.548 49.828 289.02 49.284 288.652 48.58L288.58 50.5H286.756V33.46H288.772V39.556C289.108 38.98 289.62 38.492 290.308 38.092C290.996 37.692 291.756 37.492 292.588 37.492C293.692 37.492 294.652 37.764 295.468 38.308C296.3 38.852 296.94 39.628 297.388 40.636C297.836 41.628 298.06 42.796 298.06 44.14C298.06 45.484 297.836 46.66 297.388 47.668C296.94 48.66 296.3 49.428 295.468 49.972C294.652 50.516 293.692 50.788 292.588 50.788ZM292.468 48.868C293.54 48.868 294.388 48.444 295.012 47.596C295.636 46.748 295.948 45.596 295.948 44.14C295.948 42.668 295.636 41.516 295.012 40.684C294.404 39.836 293.572 39.412 292.516 39.412C291.348 39.412 290.428 39.836 289.756 40.684C289.1 41.516 288.772 42.668 288.772 44.14C288.772 45.596 289.1 46.748 289.756 47.596C290.412 48.444 291.316 48.868 292.468 48.868ZM305.041 50.788C303.761 50.788 302.745 50.364 301.993 49.516C301.241 48.652 300.865 47.468 300.865 45.964V37.78H302.881V45.412C302.881 46.644 303.097 47.556 303.529 48.148C303.977 48.724 304.657 49.012 305.569 49.012C306.577 49.012 307.369 48.692 307.945 48.052C308.521 47.396 308.809 46.5 308.809 45.364V37.78H310.825V50.5H308.905V48.436C308.553 49.188 308.049 49.772 307.393 50.188C306.737 50.588 305.953 50.788 305.041 50.788ZM318.881 50.5C317.729 50.5 316.873 50.236 316.313 49.708C315.769 49.18 315.497 48.356 315.497 47.236V39.556H313.625V37.78H315.497V34.804H317.513V37.78H320.897V39.556H317.513V47.188C317.513 47.748 317.633 48.148 317.873 48.388C318.129 48.612 318.529 48.724 319.073 48.724H320.897V50.5H318.881ZM327.869 50.788C326.589 50.788 325.573 50.364 324.821 49.516C324.069 48.652 323.693 47.468 323.693 45.964V37.78H325.709V45.412C325.709 46.644 325.925 47.556 326.357 48.148C326.805 48.724 327.485 49.012 328.397 49.012C329.405 49.012 330.197 48.692 330.773 48.052C331.349 47.396 331.637 46.5 331.637 45.364V37.78H333.653V50.5H331.733V48.436C331.381 49.188 330.877 49.772 330.221 50.188C329.565 50.588 328.781 50.788 327.869 50.788ZM337.147 33.46H339.163V39.772C339.483 39.02 339.971 38.452 340.627 38.068C341.299 37.684 342.091 37.492 343.003 37.492C344.347 37.492 345.387 37.932 346.123 38.812C346.875 39.692 347.251 40.86 347.251 42.316V50.5H345.235V42.892C345.235 40.476 344.347 39.268 342.571 39.268C341.515 39.268 340.683 39.588 340.075 40.228C339.467 40.868 339.163 41.764 339.163 42.916V50.5H337.147V33.46ZM350.623 33.46H352.639V44.62L358.831 37.78H361.519L356.503 43.18L361.735 50.5H359.287L355.135 44.548L352.639 47.188V50.5H350.623V33.46ZM367.674 50.788C366.346 50.788 365.298 50.484 364.53 49.876C363.762 49.268 363.378 48.42 363.378 47.332C363.378 46.244 363.698 45.388 364.338 44.764C364.978 44.14 365.994 43.7 367.386 43.444L371.898 42.604C371.898 40.476 370.89 39.412 368.874 39.412C367.178 39.412 366.13 40.172 365.73 41.692L363.594 41.524C363.834 40.292 364.418 39.316 365.346 38.596C366.29 37.86 367.466 37.492 368.874 37.492C370.49 37.492 371.73 37.948 372.594 38.86C373.474 39.772 373.914 41.044 373.914 42.676V47.932C373.914 48.22 373.962 48.428 374.058 48.556C374.17 48.668 374.346 48.724 374.586 48.724H375.09V50.5C374.898 50.532 374.642 50.548 374.322 50.548C373.554 50.548 372.978 50.388 372.594 50.068C372.226 49.748 372.002 49.236 371.922 48.532C371.602 49.188 371.042 49.732 370.242 50.164C369.458 50.58 368.602 50.788 367.674 50.788ZM367.866 49.012C369.114 49.012 370.098 48.66 370.818 47.956C371.538 47.252 371.898 46.356 371.898 45.268V44.356L367.77 45.124C366.938 45.268 366.346 45.508 365.994 45.844C365.658 46.164 365.49 46.596 365.49 47.14C365.49 47.732 365.698 48.196 366.114 48.532C366.53 48.852 367.114 49.012 367.866 49.012ZM377.74 37.78H379.588L379.636 40.06C379.956 39.212 380.46 38.572 381.148 38.14C381.836 37.708 382.636 37.492 383.548 37.492C384.94 37.492 386.004 37.94 386.74 38.836C387.476 39.732 387.844 40.892 387.844 42.316V50.5H385.828V42.892C385.828 41.692 385.612 40.788 385.18 40.18C384.748 39.572 384.06 39.268 383.116 39.268C382.108 39.268 381.292 39.588 380.668 40.228C380.06 40.852 379.756 41.74 379.756 42.892V50.5H377.74V37.78Z" fill="white"/>
<defs>
<clipPath id="clip0_202_14500">
<path d="M0 97C0 90.3726 5.37258 85 12 85H94V198H12C5.37258 198 0 192.627 0 186V97Z" fill="white"/>
</clipPath>
</defs>
</svg>
