<?xml version="1.0" encoding="UTF-8"?>
<svg id="Layer_2" data-name="Layer 2" xmlns="http://www.w3.org/2000/svg" viewBox="0 0 406.76 406.76">
  <defs>
    <style>
      .cls-1 {
        fill: #003334;
      }

      .cls-1, .cls-2, .cls-3 {
        stroke-width: 0px;
      }

      .cls-2 {
        fill: #209f52;
      }

      .cls-3 {
        fill: #fff;
      }
    </style>
  </defs>
  <g id="Layer_1-2" data-name="Layer 1">
    <rect class="cls-1" x="0" width="406.76" height="406.76" rx="71.26" ry="71.26"/>
    <g>
      <path class="cls-2" d="M199.47,314.86c-.86.76-1.76.18-2.55-.29-9.05-5.31-18.05-10.68-27.13-15.92-7.8-4.49-15.68-8.82-23.52-13.27-14.15-8.01-25.35-19.13-34.07-32.78-1.46-2.3-3.69-4.23-3.87-7.23-1.77-6.4-4.86-12.33-6.34-18.86-1.98-8.74-2.62-17.53-2.47-26.43.12-6.51.11-13.03.06-19.54-.02-3.05-1.55-6.01-.06-9.19.75-1.61,1.07-2.01,3.04-1.63,15.78,3.08,30.19,9.54,43.34,18.45,8.46,5.74,15.35,13.54,22.23,21.17,10.3,11.44,17.45,24.72,23.03,38.94,1.88,2.56,2.26,5.66,2.75,8.62.69,4.28.93,8.62,1.31,12.94.19,2.18-.82,2.64-2.58,1.56-10.25-6.26-21.13-11.49-30.84-18.63-14.11-11.74-24.69-26.01-31-43.32-1.07-2.92-2.75-5.79-3.01-8.78-.38-4.53-3.42-2.72-5.47-2.82-3.1-.14-1.73,2.48-1.7,3.8.21,14.04,3.57,27.27,10.55,39.5,4.2,6.78,8.92,13.09,14.66,18.7,6.82,6.65,15.04,11.13,23.14,15.86,11.72,6.84,20.98,16.07,27.25,28.14,1.39,2.68,2.33,5.6,3.47,8.42.36.88.6,1.87-.21,2.58Z"/>
      <path class="cls-2" d="M307.37,210.28c-1.05,12.97-4.72,25.29-10.11,37.11.11.76-.07,1.37-.85,1.68-.24.27-.46.55-.7.82-1.1,4.7-4.28,8.18-7.1,11.79-7.91,10.12-17.72,17.76-28.76,24.51-15.51,9.48-32.07,16.99-47.46,26.63-1.79,1.12-3.68,2.04-6.51,3.57,2.07-6.17,4.11-11.22,6.8-16.03,6.86-12.28,17.65-20.21,29.65-26.74,10-5.43,18.73-12.36,25.91-21.21.51-.64.95-1.27,1.85-1.33.3-.44.58-.88.88-1.32l-.04.1c7.47-11.16,12.12-23.47,14.48-36.61.74-4.06,1.36-8.28.8-12.47-.14-1.06.98-3.16-1.35-2.89-1.87.21-4.39-1.69-5.56,1.82-1.88,5.63-3.38,11.42-6.09,16.78-2.79,5.54-5.63,10.97-9.41,15.96-2.26,2.99-4.29,6.2-6.62,9.16-1.5,3.25-4.23,5.45-6.84,7.63-10.3,8.61-21.89,15.18-34.11,20.64-1.89.85-3.41,2.54-6.26,2.69,1.37-10.79,3.07-21.19,8.15-30.75.3.08.6.18.89.26.02-.24.05-.48.07-.71l-.1-.05c2.85-8.62,7.56-16.2,12.87-23.45,13.92-18.99,31.15-33.82,53.34-42.42,6.62-2.57,13.42-4.48,20.38-5.93,1.51-.32,2.1.01,2.07,1.7-.17,13.03.75,26.06-.3,39.06Z"/>
      <path class="cls-3" d="M307.74,151.46c-8.73,1.22-16.43,2.61-23.94,4.94-2.58.8-4.37-1.45-6.29-2.64-16.65-10.31-34.19-19.11-50.46-30.03-6.3-4.23-12.14-9.14-18.15-13.8-5.6-4.34-5.28-3.94-11.1.01-8.03,5.46-15.3,11.96-23.69,16.92-14.51,8.57-29.35,16.67-43.3,26.07-7.11,4.79-13.24,1.91-19.85.91-2.67-.4-5.27-1.3-8.02-1.44-.79-.04-1.98-.56-2.21-1.16-.31-.79.86-1.04,1.51-1.48,8.89-5.99,18.11-11.45,27.37-16.84,6.7-3.9,13.37-7.9,19.94-12.03,5.11-3.21,10.62-5.97,15.87-9.11,7.08-4.24,14.3-8.25,21.46-12.36,4.93-2.83,9.94-5.53,14.74-8.57,1.54-.97,2.5-.24,3.47.32,10.36,5.97,20.66,12.04,31,18.05,4.98,2.9,10.02,5.68,14.99,8.6,8.83,5.2,17.54,10.65,26.44,15.68,9.58,5.41,18.91,11.25,28.53,16.57.3.17.54.43,1.69,1.38Z"/>
      <path class="cls-2" d="M222.71,202.25c-1.12-6.36-3.72-11.44-5.26-16.89-3.57-8.36-8.38-16.04-12.89-23.9-1.3-2.25-2.43-1.19-3.16.14-3.76,6.88-8.11,13.46-11.02,20.79-1.49,5.6-4.26,10.74-5.72,16.37-.57,2.26-2.38,1.43-3.04-.13-1.88-4.47-4.24-8.79-4.73-13.73.45-6.53-.05-13.06,1.57-19.59,3.06-12.33,9.81-22.51,17.47-32.24,1.36-1.71,2.79-3.39,4.41-4.95,3.5-3.37,3.33-3.57,6.49.26,7.09,8.6,14.21,17.17,18.45,27.66,2.98,7.37,3.91,15.16,4.66,22.98,1.04,8.48-2.19,15.64-7.24,23.21Z"/>
      <path class="cls-3" d="M203.27,196.04c2.47,6.95,4.58,12.94,6.72,18.91.44,1.22.24,2.32-.33,3.44-1.68,3.31-3.3,6.66-4.99,9.97-.34.66-.47,1.72-1.39,1.7-.84,0-1.34-.85-1.59-1.6-.92-2.79-2.4-5.29-3.89-7.8-1.63-2.75-1.67-5.47-.32-8.58,2.14-4.92,3.68-10.09,5.79-16.03Z"/>
    </g>
  </g>
</svg>