<svg width="87" height="15" viewBox="0 0 87 15" fill="none" xmlns="http://www.w3.org/2000/svg">
<path fill-rule="evenodd" clip-rule="evenodd" d="M0.940691 11.7986C0.421216 11.7986 -7.62939e-05 11.3839 -7.62939e-05 10.8726V4.13638C-7.62939e-05 3.6251 0.421216 3.21045 0.940691 3.21045C1.46017 3.21045 1.88146 3.6251 1.88146 4.13638V10.8726C1.88146 11.3839 1.46017 11.7986 0.940691 11.7986Z" fill="#89C7E8"/>
<path fill-rule="evenodd" clip-rule="evenodd" d="M12.2296 11.7986C11.7101 11.7986 11.2888 11.384 11.2888 10.8727V4.14175C11.2888 3.63047 11.7101 3.21582 12.2296 3.21582C12.749 3.21582 13.1703 3.63047 13.1703 4.14175V10.8727C13.1703 11.384 12.749 11.7986 12.2296 11.7986Z" fill="#0BADDC"/>
<path fill-rule="evenodd" clip-rule="evenodd" d="M6.58513 14.4997C6.06566 14.4997 5.64436 14.085 5.64436 13.5738V1.44009C5.64436 0.928807 6.06566 0.51416 6.58513 0.51416C7.1046 0.51416 7.5259 0.928807 7.5259 1.44009V13.5738C7.5259 14.085 7.1046 14.4997 6.58513 14.4997Z" fill="#307FC2"/>
<path fill-rule="evenodd" clip-rule="evenodd" d="M80.1275 10.733C80.0144 10.6533 79.9014 10.494 79.9014 10.2867C79.9014 10.0003 80.1441 9.76135 80.4512 9.76135C80.5642 9.76135 80.6779 9.79297 80.7588 9.85739C81.6157 10.4302 82.5059 10.733 83.4115 10.733C84.4148 10.733 85.1431 10.2234 85.1431 9.42694V9.39531C85.1431 8.56719 84.1565 8.24859 83.0563 7.94639C81.7454 7.57977 80.2893 7.13408 80.2893 5.62191V5.5897C80.2893 4.1724 81.4866 3.23242 83.1366 3.23242C84.0268 3.23242 84.9979 3.50358 85.806 3.93346C85.9685 4.0295 86.1136 4.20403 86.1136 4.44298C86.1136 4.72995 85.8709 4.9689 85.5638 4.9689C85.4502 4.9689 85.3532 4.93669 85.2889 4.90506C84.5766 4.50682 83.8168 4.26787 83.1045 4.26787C82.1173 4.26787 81.4866 4.77739 81.4866 5.46261V5.49424C81.4866 6.27433 82.5219 6.57712 83.6383 6.91095C84.9325 7.29338 86.3237 7.78709 86.3237 9.26822V9.29926C86.3237 10.8606 85.014 11.7678 83.3473 11.7678C82.247 11.7678 81.0337 11.3696 80.1275 10.733Z" fill="#012956"/>
<path fill-rule="evenodd" clip-rule="evenodd" d="M78.105 6.66652C78.105 4.81408 76.4544 3.20117 74.4645 3.20117C72.4515 3.20117 70.8193 4.80763 70.8193 6.78892V11.032C70.8193 11.3981 71.1067 11.6803 71.478 11.6803C71.8505 11.6803 72.1206 11.3981 72.1206 11.032L72.12 9.12628V6.66593C72.12 5.39329 73.1685 4.36136 74.4615 4.36136C75.7552 4.36136 76.8036 5.39329 76.8036 6.66593V9.13038V11.032C76.8036 11.3981 77.0905 11.6803 77.4457 11.6803C77.8176 11.6803 78.105 11.3981 78.105 11.032C78.105 11.032 78.1169 7.06535 78.105 6.66652Z" fill="#012956"/>
<path fill-rule="evenodd" clip-rule="evenodd" d="M64.5398 10.6838C63.4068 10.6838 62.5136 10.2082 62.5136 9.17338V9.14117C62.5136 8.10631 63.3872 7.43749 64.9563 7.43749C65.9756 7.43749 67.4144 7.75902 67.415 7.78771V7.78947C67.415 9.29871 65.9828 10.6838 64.5398 10.6838ZM68.5962 6.57774H68.5938C68.4802 4.81081 66.8819 3.31152 64.964 3.31152H64.4059C64.0804 3.31152 63.8168 3.57097 63.8168 3.89133C63.8168 4.21168 64.0804 4.47171 64.4059 4.47171H64.9611C66.2547 4.47171 67.3996 5.50364 67.3996 6.77628V6.87994C66.6552 6.67321 65.8947 6.52972 64.8272 6.52972C62.7076 6.52972 61.2516 7.4533 61.2516 9.1892V9.22082C61.2516 10.9093 62.7636 11.7848 64.3166 11.7848C65.7269 11.7848 66.8396 11.0733 67.415 10.1567V11.1002C67.415 11.4211 67.6798 11.6812 68.0059 11.6812C68.332 11.6812 68.5968 11.4211 68.5968 11.1002L68.5962 6.57774Z" fill="#012956"/>
<path fill-rule="evenodd" clip-rule="evenodd" d="M61.0161 3.88947C61.0161 3.56911 60.7519 3.30908 60.4265 3.30908H60.0242H60.0236C58.0106 3.30908 56.3784 4.91554 56.3784 6.89624V11.0322C56.3784 11.3982 56.6658 11.6805 57.0371 11.6805C57.4096 11.6805 57.6797 11.3982 57.6797 11.0322L57.6791 9.12643V6.77384C57.6791 5.5012 58.7276 4.46927 60.0206 4.46927H60.0242V4.46986H60.4265C60.7519 4.46986 61.0161 4.20983 61.0161 3.88947Z" fill="#012956"/>
<path fill-rule="evenodd" clip-rule="evenodd" d="M54.3106 3.85995C54.3106 3.56068 54.0643 3.31821 53.7602 3.31821H51.5764V1.15713C51.5764 0.817451 51.295 0.505294 50.9504 0.502952C50.5916 0.500024 50.3304 0.787582 50.3304 1.12375V9.42781C50.3304 11.0993 51.3491 11.7523 52.6921 11.7523C53.1777 11.7523 53.5662 11.6726 53.9221 11.5297C54.1321 11.4501 54.2779 11.275 54.2779 11.0518C54.2779 10.7649 54.0351 10.5265 53.7442 10.5265C53.6472 10.5265 53.4205 10.6378 52.9837 10.6378C52.1423 10.6378 51.5764 10.2712 51.5764 9.26851V4.40168H53.7602C54.0643 4.40168 54.3106 4.15922 54.3106 3.85995Z" fill="#012956"/>
<path fill-rule="evenodd" clip-rule="evenodd" d="M47.7562 11.0676C47.7562 11.4179 47.4813 11.6884 47.1415 11.6884C46.7857 11.6884 46.5102 11.4179 46.5102 11.0676V10.1845C45.8306 11.1719 44.844 11.7839 43.307 11.7839C41.3011 11.7839 39.3107 10.2237 39.3107 7.51678V7.48457C39.3107 4.79405 41.3011 3.20164 43.307 3.20164C44.8601 3.20164 45.8634 3.79785 46.5102 4.72143V1.12138C46.5102 0.77116 46.769 0.5 47.1254 0.5C47.4813 0.5 47.7562 0.77116 47.7562 1.12138V11.0676ZM40.5895 7.46875V7.50097C40.5895 9.4436 41.964 10.6858 43.5338 10.6858C45.0868 10.6858 46.559 9.39557 46.559 7.50097V7.46875C46.559 5.57415 45.0868 4.30034 43.5338 4.30034C41.9152 4.30034 40.5895 5.47869 40.5895 7.46875Z" fill="#012956"/>
<path fill-rule="evenodd" clip-rule="evenodd" d="M35.9805 3.8166C35.9805 3.48219 36.2554 3.1958 36.5952 3.1958C36.951 3.1958 37.2265 3.46638 37.2265 3.8166V11.0676C37.2265 11.4185 36.9671 11.6884 36.6112 11.6884C36.2554 11.6884 35.9805 11.4185 35.9805 11.0676V3.8166Z" fill="#012956"/>
<path fill-rule="evenodd" clip-rule="evenodd" d="M29.9111 3.1958C28.7186 3.1958 27.6666 3.78614 27.0376 4.68455C26.4122 3.79024 25.3727 3.20166 24.1844 3.20166C22.2582 3.20166 20.6962 4.73901 20.6962 6.63479V11.0676C20.6962 11.4179 20.9705 11.6884 21.327 11.6884C21.6828 11.6884 21.9423 11.4179 21.9423 11.0676L21.9411 6.51766C21.9411 5.2989 22.9443 4.31207 24.1826 4.31207C25.4197 4.31207 26.4235 5.2989 26.4235 6.51766L26.4229 10.5599V10.5616C26.4229 10.9001 26.7014 11.1748 27.046 11.1748C27.3899 11.1748 27.669 10.9001 27.669 10.5616L27.6672 6.5118C27.6672 5.29363 28.671 4.30621 29.9087 4.30621C31.1464 4.30621 32.1497 5.29363 32.1497 6.5118V11.0618C32.1497 11.4126 32.4246 11.6826 32.7643 11.6826C33.1202 11.6826 33.3957 11.4126 33.3957 11.0618L33.3993 6.63479C33.3993 4.67927 31.7575 3.1958 29.9111 3.1958Z" fill="#012956"/>
</svg>
